<svg xmlns="http://www.w3.org/2000/svg" xmlns:xlink="http://www.w3.org/1999/xlink" width="40.72" height="28.17" viewBox="0 0 40.72 28.17"><defs><style>.a{fill:url(#a);}</style><linearGradient id="a" x1="6.38" y1="28.13" x2="34.39" y2="0.11" gradientUnits="userSpaceOnUse"><stop offset="0" stop-color="#0006aa"/><stop offset="1" stop-color="#27aae1"/></linearGradient></defs><title>symbol-eq</title><path class="a" d="M10.77,28.17c-4.83,0-9-3.24-10.51-8.26A5.25,5.25,0,0,1,1,15.18c.87-1.18,2.74-2.6,6.67-2.6H33.44c1.92,0,3.3-.44,3.9-1.25a2.54,2.54,0,0,0,.23-2.18C36.42,5.36,33.47,3,29.9,3c-3,0-5.74,2.29-7.15,6a1.5,1.5,0,0,1-2.81-1.07C21.81,3,25.62,0,29.9,0c4.87,0,9,3.25,10.54,8.28a5.4,5.4,0,0,1-.69,4.84c-.84,1.12-2.61,2.46-6.31,2.46H7.65c-2.09,0-3.6.49-4.26,1.38A2.31,2.31,0,0,0,3.13,19c1.17,3.79,4.1,6.15,7.64,6.15,3,0,5.87-2.43,7.23-6.19a1.5,1.5,0,1,1,2.82,1C19,25,15.08,28.17,10.77,28.17Z"/></svg>